<svg xmlns="http://www.w3.org/2000/svg" viewBox="0 0 800 450" fill="none">
  <rect width="800" height="450" fill="#0f172a"/>
  <!-- Geometric background -->
  <polygon points="0,450 200,0 400,450" fill="#3b82f6" opacity="0.05"/>
  <polygon points="300,450 500,0 700,450" fill="#a78bfa" opacity="0.05"/>
  <polygon points="500,450 800,0 800,450" fill="#22d3ee" opacity="0.03"/>
  <nav>
    <rect x="40" y="30" width="30" height="30" rx="4" fill="#3b82f6"/>
    <rect x="550" y="35" width="50" height="14" rx="4" fill="#334155"/>
    <rect x="610" y="35" width="50" height="14" rx="4" fill="#334155"/>
    <rect x="670" y="35" width="50" height="14" rx="4" fill="#334155"/>
    <rect x="730" y="35" width="30" height="14" rx="4" fill="#3b82f6"/>
  </nav>
  <!-- Hero -->
  <text x="400" y="160" font-family="system-ui, sans-serif" font-size="48" font-weight="800" fill="white" text-anchor="middle">Hex6</text>
  <text x="400" y="195" font-family="system-ui, sans-serif" font-size="16" fill="#94a3b8" text-anchor="middle">Transformamos ideas en soluciones digitales</text>
  <rect x="310" y="220" width="180" height="42" rx="8" fill="#3b82f6" opacity="0.9"/>
  <text x="400" y="246" font-family="system-ui, sans-serif" font-size="13" font-weight="600" fill="white" text-anchor="middle">Nuestros servicios</text>
  <!-- Features -->
  <rect x="40" y="300" width="230" height="80" rx="12" fill="#1e293b" stroke="#334155" stroke-width="1"/>
  <text x="155" y="330" font-family="system-ui, sans-serif" font-size="13" fill="white" text-anchor="middle">Desarrollo Web</text>
  <text x="155" y="350" font-family="system-ui, sans-serif" font-size="11" fill="#64748b" text-anchor="middle">React · Next.js · TypeScript</text>
  <rect x="285" y="300" width="230" height="80" rx="12" fill="#1e293b" stroke="#334155" stroke-width="1"/>
  <text x="400" y="330" font-family="system-ui, sans-serif" font-size="13" fill="white" text-anchor="middle">Apps Móviles</text>
  <text x="400" y="350" font-family="system-ui, sans-serif" font-size="11" fill="#64748b" text-anchor="middle">React Native · Flutter</text>
  <rect x="530" y="300" width="230" height="80" rx="12" fill="#1e293b" stroke="#334155" stroke-width="1"/>
  <text x="645" y="330" font-family="system-ui, sans-serif" font-size="13" fill="white" text-anchor="middle">Cloud & DevOps</text>
  <text x="645" y="350" font-family="system-ui, sans-serif" font-size="11" fill="#64748b" text-anchor="middle">AWS · Firebase · Vercel</text>
  <text x="400" y="440" font-family="system-ui, sans-serif" font-size="11" fill="#475569" text-anchor="middle">Placeholder — Reemplazar con screenshot real</text>
</svg>
